<?xml version="1.0" encoding="UTF-8" standalone="no"?>
<!-- Created with Inkscape (http://www.inkscape.org/) -->

<svg
   xmlns:dc="http://purl.org/dc/elements/1.1/"
   xmlns:cc="http://creativecommons.org/ns#"
   xmlns:rdf="http://www.w3.org/1999/02/22-rdf-syntax-ns#"
   xmlns:svg="http://www.w3.org/2000/svg"
   xmlns="http://www.w3.org/2000/svg"
   xmlns:xlink="http://www.w3.org/1999/xlink"
   xmlns:sodipodi="http://sodipodi.sourceforge.net/DTD/sodipodi-0.dtd"
   xmlns:inkscape="http://www.inkscape.org/namespaces/inkscape"
   width="210mm"
   height="297mm"
   id="svg2"
   version="1.1"
   inkscape:version="0.48.1 "
   sodipodi:docname="Documento nuevo 1">
  <defs
     id="defs4">
    <inkscape:path-effect
       effect="spiro"
       id="path-effect4010"
       is_visible="true" />
    <inkscape:path-effect
       effect="spiro"
       id="path-effect4014"
       is_visible="true" />
    <inkscape:path-effect
       effect="spiro"
       id="path-effect4018"
       is_visible="true" />
    <inkscape:path-effect
       effect="spiro"
       id="path-effect4022"
       is_visible="true" />
    <inkscape:path-effect
       effect="spiro"
       id="path-effect4026"
       is_visible="true" />
    <inkscape:path-effect
       effect="spiro"
       id="path-effect4030"
       is_visible="true" />
    <inkscape:path-effect
       effect="spiro"
       id="path-effect4034"
       is_visible="true" />
    <inkscape:path-effect
       effect="spiro"
       id="path-effect4038"
       is_visible="true" />
    <inkscape:path-effect
       effect="spiro"
       id="path-effect4042"
       is_visible="true" />
    <radialGradient
       inkscape:collect="always"
       xlink:href="#linearGradient4046"
       id="radialGradient4052"
       cx="-361.10577"
       cy="590.49542"
       fx="-361.10577"
       fy="590.49542"
       r="246.01622"
       gradientTransform="matrix(1.5078948,-0.0703838,0.0810282,1.73594,135.55698,-459.98615)"
       gradientUnits="userSpaceOnUse" />
    <linearGradient
       id="linearGradient4046">
      <stop
         style="stop-color:#000000;stop-opacity:0;"
         offset="0"
         id="stop4048" />
      <stop
         id="stop4060"
         offset="0.31617215"
         style="stop-color:#000000;stop-opacity:0.03902439;" />
      <stop
         id="stop4058"
         offset="0.31617215"
         style="stop-color:#000000;stop-opacity:0.12195122;" />
      <stop
         id="stop4056"
         offset="0.40072569"
         style="stop-color:#000000;stop-opacity:0.15609756;" />
      <stop
         id="stop4054"
         offset="0.46929413"
         style="stop-color:#000000;stop-opacity:0.23414634;" />
      <stop
         style="stop-color:#000000;stop-opacity:0.35609755;"
         offset="1"
         id="stop4050" />
    </linearGradient>
    <radialGradient
       inkscape:collect="always"
       xlink:href="#linearGradient4062"
       id="radialGradient4068"
       cx="192.18758"
       cy="578.0965"
       fx="192.18758"
       fy="578.0965"
       r="246.01622"
       gradientTransform="matrix(-0.08443866,0.01535238,-0.17887893,-0.98384098,-143.26799,1144.9749)"
       gradientUnits="userSpaceOnUse" />
    <linearGradient
       inkscape:collect="always"
       id="linearGradient4062">
      <stop
         style="stop-color:#000000;stop-opacity:1;"
         offset="0"
         id="stop4064" />
      <stop
         style="stop-color:#000000;stop-opacity:0;"
         offset="1"
         id="stop4066" />
    </linearGradient>
    <radialGradient
       r="246.01622"
       fy="590.49542"
       fx="-361.10577"
       cy="590.49542"
       cx="-361.10577"
       gradientTransform="matrix(1.5078948,-0.0703838,0.0810282,1.73594,135.55698,-459.98615)"
       gradientUnits="userSpaceOnUse"
       id="radialGradient3242"
       xlink:href="#linearGradient4046"
       inkscape:collect="always" />
    <radialGradient
       r="246.01622"
       fy="578.0965"
       fx="192.18758"
       cy="578.0965"
       cx="192.18758"
       gradientTransform="matrix(-0.08443866,0.01535238,-0.17887893,-0.98384098,-143.26799,1144.9749)"
       gradientUnits="userSpaceOnUse"
       id="radialGradient3244"
       xlink:href="#linearGradient4062"
       inkscape:collect="always" />
  </defs>
  <sodipodi:namedview
     id="base"
     pagecolor="#ffffff"
     bordercolor="#666666"
     borderopacity="1.0"
     inkscape:pageopacity="0.0"
     inkscape:pageshadow="2"
     inkscape:zoom="0.35"
     inkscape:cx="-11.428571"
     inkscape:cy="520"
     inkscape:document-units="px"
     inkscape:current-layer="layer1"
     showgrid="false"
     inkscape:window-width="1366"
     inkscape:window-height="706"
     inkscape:window-x="-8"
     inkscape:window-y="-8"
     inkscape:window-maximized="1" />
  <metadata
     id="metadata7">
    <rdf:RDF>
      <cc:Work
         rdf:about="">
        <dc:format>image/svg+xml</dc:format>
        <dc:type
           rdf:resource="http://purl.org/dc/dcmitype/StillImage" />
        <dc:title></dc:title>
      </cc:Work>
    </rdf:RDF>
  </metadata>
  <g
     inkscape:label="Capa 1"
     inkscape:groupmode="layer"
     id="layer1">
    <g
       transform="translate(-732.05004,-12.006178)"
       id="g4070">
      <path
         transform="matrix(1.0698048,0,0,1.0698048,1434.8516,-60.191498)"
         sodipodi:open="true"
         sodipodi:end="9.1128031"
         sodipodi:start="2.9371194"
         d="m -550.47034,608.24002 c -27.52722,-132.74358 57.7675,-262.66874 190.51108,-290.19596 132.74359,-27.52721 262.668742,57.7675 290.195959,190.51109 27.527217,132.74358 -57.767499,262.66874 -190.511089,290.19595 -122.76178,25.45728 -244.97862,-45.68848 -283.46063,-165.01016"
         sodipodi:ry="245.46707"
         sodipodi:rx="245.46707"
         sodipodi:cy="558.39758"
         sodipodi:cx="-310.11682"
         id="path4006"
         style="fill:#a05a2c;fill-rule:evenodd;stroke:#000000;stroke-width:1px;stroke-linecap:butt;stroke-linejoin:miter;stroke-opacity:1"
         sodipodi:type="arc" />
      <path
         inkscape:connector-curvature="0"
         inkscape:original-d="m 1076.8226,333.13357 6.0609,30.30458 36.3655,10.10153 2.0203,2.0203 -10.1015,8.08122 -12.1218,-4.04061 -6.061,-6.06091 -12.1218,2.0203 -14.1421,4.04061 4.0406,12.12183 26.264,6.06092 12.1218,2.0203 20.203,22.22336 -4.0406,12.12183 4.0406,8.08122 -10.1015,-2.02031 -8.0812,-8.08122 16.1624,22.22336 -10.1015,22.22336 -4.0406,6.06091 -8.0812,0 -12.1219,0 -6.0609,12.12183 -18.1827,16.16244 30.3046,8.08122 -14.1422,12.12183 24.2437,-4.04061 6.0609,6.06092 -6.0609,16.16244 18.1827,-6.06092 4.0406,-18.18274 -4.0406,-12.12183 -14.1421,-4.04061 -8.0812,-4.04061 12.1218,-2.02031 2.0203,-18.18274 8.0812,-14.14214 12.1219,-10.10152 8.0812,20.20305 -16.1625,22.22335 c 0,0 0,14.14214 12.1219,12.12183 12.1218,-2.0203 18.1827,-24.24366 18.1827,-24.24366 l 4.0406,14.14214 0,16.16244 18.1828,4.04061 12.1218,16.16244 26.264,-6.06092 10.1015,-12.12183 12.1218,-16.16244 8.0812,-16.16244 -6.0609,-4.04061 2.0203,-48.48732 -12.1218,-12.12183 28.2843,4.04061 -6.0609,-32.32488 -32.3249,-16.16244 -18.1828,0 -28.2842,-26.26397 -26.264,-14.14213 -4.0406,-8.08123 -6.0609,6.06092 -22.2234,0 -10.1015,0 -6.0609,-6.06092 -6.0609,6.06092 z"
         inkscape:path-effect="#path-effect4010"
         id="path4008"
         d="m 1076.8226,333.13357 6.0609,30.30458 36.3655,10.10153 2.0203,2.0203 -10.1015,8.08122 -12.1218,-4.04061 -6.061,-6.06091 -12.1218,2.0203 -14.1421,4.04061 4.0406,12.12183 c 8.6639,2.38984 17.429,4.41256 26.264,6.06092 4.0271,0.75134 8.0687,1.42494 12.1218,2.0203 l 20.203,22.22336 -4.0406,12.12183 4.0406,8.08122 -10.1015,-2.02031 -8.0812,-8.08122 16.1624,22.22336 -10.1015,22.22336 -4.0406,6.06091 -8.0812,0 -12.1219,0 -6.0609,12.12183 -18.1827,16.16244 30.3046,8.08122 -14.1422,12.12183 24.2437,-4.04061 6.0609,6.06092 -6.0609,16.16244 18.1827,-6.06092 4.0406,-18.18274 -4.0406,-12.12183 -14.1421,-4.04061 -8.0812,-4.04061 12.1218,-2.02031 2.0203,-18.18274 8.0812,-14.14214 12.1219,-10.10152 8.0812,20.20305 -16.1625,22.22335 c 0.7102,2.91952 2.2368,5.6359 4.3614,7.76051 2.1246,2.1246 4.841,3.65118 7.7605,4.36132 3.1126,0.7571 6.446,0.5807 9.4613,-0.50069 3.0153,-1.08139 5.7011,-3.06367 7.6231,-5.62636 1.922,-2.56268 3.073,-5.69607 3.2668,-8.89355 0.1939,-3.19748 -0.5701,-6.44696 -2.1685,-9.22306 l 4.0406,14.14214 0,16.16244 18.1828,4.04061 12.1218,16.16244 26.264,-6.06092 c 3.4574,-3.96428 6.8257,-8.00625 10.1015,-12.12183 4.1945,-5.26975 8.2373,-10.6602 12.1218,-16.16244 l 8.0812,-16.16244 -6.0609,-4.04061 2.0203,-48.48732 -12.1218,-12.12183 28.2843,4.04061 -6.0609,-32.32488 -32.3249,-16.16244 -18.1828,0 -28.2842,-26.26397 -26.264,-14.14213 -4.0406,-8.08123 -6.0609,6.06092 -22.2234,0 -10.1015,0 -6.0609,-6.06092 -6.0609,6.06092 -22.2234,-6.06092"
         style="fill:#502d16;fill-opacity:0.57368421;stroke:none" />
      <path
         sodipodi:nodetypes="cccccscccccccccccccccc"
         inkscape:connector-curvature="0"
         inkscape:original-d="m 1058.6398,290.70716 4.0407,8.08122 -12.1219,0 -2.0203,6.06092 -6.0609,4.04061 c 0,0 -16.1624,2.0203 -6.0609,4.04061 10.1015,2.0203 10.1015,6.06091 10.1015,6.06091 l -6.0609,10.10153 20.2031,-2.02031 22.2233,4.04061 4.0406,14.14214 12.1219,-6.06092 16.1624,-2.0203 40.4061,0 4.0406,-14.14214 -14.1421,-4.04061 -26.264,2.02031 -40.4061,4.04061 -16.1624,-4.04061 -2.0203,-8.08122 6.0609,-4.04061 z"
         inkscape:path-effect="#path-effect4014"
         id="path4012"
         d="m 1058.6398,290.70716 4.0407,8.08122 -12.1219,0 -2.0203,6.06092 -6.0609,4.04061 c -1.3014,-0.0806 -2.6261,0.27614 -3.711,0.99942 -1.085,0.72328 -1.9238,1.80887 -2.3499,3.04119 -0.447,1.29258 -0.4355,2.73857 0.032,4.02392 0.4673,1.28535 1.3873,2.40101 2.5601,3.10468 1.1727,0.70366 2.5901,0.99037 3.9441,0.79786 1.3541,-0.19252 2.6353,-0.8629 3.5655,-1.86555 l -6.0609,10.10153 20.2031,-2.02031 22.2233,4.04061 4.0406,14.14214 12.1219,-6.06092 16.1624,-2.0203 40.4061,0 4.0406,-14.14214 -14.1421,-4.04061 c -8.7605,0.59455 -17.5156,1.26802 -26.264,2.02031 -13.4865,1.15973 -26.957,2.50677 -40.4061,4.04061 l -16.1624,-4.04061 -2.0203,-8.08122 6.0609,-4.04061 -8.0813,-18.18275"
         style="fill:#502d16;stroke:#000000;stroke-width:1px;stroke-linecap:butt;stroke-linejoin:miter;stroke-opacity:1" />
      <path
         sodipodi:nodetypes="cccccccccc"
         inkscape:connector-curvature="0"
         inkscape:original-d="m 1060.0995,295.46819 23.8266,-7.55713 32.9273,0 27.1166,2.76842 11.6214,27.68414 -15.4952,5.53681 -48.5893,-0.52408 -37.3015,-2.46834 6.4779,-8.08122 z"
         inkscape:path-effect="#path-effect4018"
         id="path4016"
         d="m 1060.0995,295.46819 23.8266,-7.55713 32.9273,0 27.1166,2.76842 11.6214,27.68414 -15.4952,5.53681 c -16.1966,0.33151 -32.4036,0.1567 -48.5893,-0.52408 -12.4512,-0.52371 -24.8898,-1.34681 -37.3015,-2.46834 l 6.4779,-8.08122 -0.5838,-17.3586"
         style="fill:#c8beb7;fill-opacity:0.57368421;stroke:#000000;stroke-width:1.14617872px;stroke-linecap:butt;stroke-linejoin:miter;stroke-opacity:1" />
      <path
         inkscape:connector-curvature="0"
         inkscape:original-d="m 941.46218,626.07781 28.28427,14.14213 38.38575,-14.14213 20.2031,-30.30458 6.0609,-24.24366 2.0203,-24.24366 10.1015,-10.10153 28.2843,-4.04061 36.3655,-6.06091 2.0203,6.06091 0,14.14214 16.1624,12.12183 2.0203,10.10153 -6.0609,16.16244 28.2843,18.18274 24.2437,-4.04061 0,24.24366 18.1827,-4.04061 -2.0203,-42.4264 20.2031,0 8.0812,-2.02031 18.1827,18.18275 14.1422,-4.04061 -6.061,-10.10153 6.061,-8.08122 10.1015,-12.12183 8.0812,-8.08122 14.1421,-16.16244 4.0407,14.14213 18.1827,2.02031 8.0812,0 6.0609,20.20305 -12.1218,44.44671 -12.1218,-30.30457 -2.0203,52.52793 -10.1016,-4.04061 -8.0812,-22.22336 -6.0609,-2.0203 -8.0812,18.18274 -22.2234,14.14214 -8.0812,14.14213 -26.264,12.12183 -6.0609,4.04061 2.0203,6.06092 34.3452,-14.14214 16.1625,-22.22335 12.1218,-6.06092 4.0406,4.04061 -2.0203,22.22336 -42.4264,40.4061 -14.1421,-4.04061 -12.1219,16.16244 0,-4.04061 -2.0203,-6.06091 -8.0812,8.08122 -8.0812,-16.16244 -6.0609,-6.06092 22.2233,-12.12183 0,-10.10153 -40.4061,0 2.0203,-18.18274 -22.2233,0 -14.1422,-4.04061 -6.0609,6.06091 -16.1624,0 -14.1422,2.02031 -8.0812,6.06091 22.2234,20.20306 -6.0609,12.12183 -40.4061,-16.16244 -8.0813,-22.22336 -14.1421,8.08122 26.264,24.24366 42.4264,8.08122 c 0,0 -20.2031,2.02031 -28.2843,0 -8.0812,-2.0203 -48.4873,-12.12183 -48.4873,-12.12183 l -18.1828,6.06092 -14.1421,-24.24367 24.2437,6.06092 4.0406,-4.04061 12.1218,4.04061 -18.1827,-8.08122 -50.50767,-16.16244 -4.04061,12.12183 16.16244,0 -24.24366,4.04061 4.04061,-8.08122 z"
         inkscape:path-effect="#path-effect4022"
         id="path4020"
         d="m 941.46218,626.07781 28.28427,14.14213 38.38575,-14.14213 20.2031,-30.30458 6.0609,-24.24366 2.0203,-24.24366 10.1015,-10.10153 c 9.4414,-1.25111 18.8702,-2.59807 28.2843,-4.04061 12.1476,-1.8614 24.2708,-3.88193 36.3655,-6.06091 l 2.0203,6.06091 0,14.14214 16.1624,12.12183 2.0203,10.10153 -6.0609,16.16244 28.2843,18.18274 24.2437,-4.04061 0,24.24366 18.1827,-4.04061 -2.0203,-42.4264 20.2031,0 8.0812,-2.02031 18.1827,18.18275 14.1422,-4.04061 -6.061,-10.10153 c 1.9662,-2.73378 3.9871,-5.42823 6.061,-8.08122 3.2399,-4.14447 6.6092,-8.18771 10.1015,-12.12183 l 8.0812,-8.08122 14.1421,-16.16244 4.0407,14.14213 18.1827,2.02031 8.0812,0 6.0609,20.20305 -12.1218,44.44671 -12.1218,-30.30457 -2.0203,52.52793 -10.1016,-4.04061 -8.0812,-22.22336 -6.0609,-2.0203 -8.0812,18.18274 -22.2234,14.14214 -8.0812,14.14213 -26.264,12.12183 -6.0609,4.04061 2.0203,6.06092 34.3452,-14.14214 16.1625,-22.22335 12.1218,-6.06092 4.0406,4.04061 -2.0203,22.22336 -42.4264,40.4061 -14.1421,-4.04061 -12.1219,16.16244 0,-4.04061 -2.0203,-6.06091 -8.0812,8.08122 -8.0812,-16.16244 -6.0609,-6.06092 22.2233,-12.12183 0,-10.10153 -40.4061,0 2.0203,-18.18274 -22.2233,0 -14.1422,-4.04061 -6.0609,6.06091 -16.1624,0 -14.1422,2.02031 -8.0812,6.06091 22.2234,20.20306 -6.0609,12.12183 -40.4061,-16.16244 -8.0813,-22.22336 -14.1421,8.08122 26.264,24.24366 42.4264,8.08122 c -4.4788,1.72913 -9.3107,2.50454 -14.1099,2.37145 -4.7991,-0.1331 -9.5167,-1.20703 -14.1744,-2.37145 l -48.4873,-12.12183 -18.1828,6.06092 -14.1421,-24.24367 24.2437,6.06092 4.0406,-4.04061 12.1218,4.04061 -18.1827,-8.08122 -50.50767,-16.16244 -4.04061,12.12183 16.16244,0 -24.24366,4.04061 4.04061,-8.08122 -14.14213,-28.28427"
         style="fill:#e38e53;fill-opacity:0.7157895;stroke:none" />
      <path
         inkscape:connector-curvature="0"
         inkscape:original-d="m 1048.5383,547.28591 24.2437,-6.06092 24.2437,-2.0203 2.0203,24.24366 12.1218,8.08122 10.1015,-4.04061 -10.1015,12.12183 4.0406,10.10153 -2.0203,12.12183 -12.1218,22.22335 16.1624,2.02031 4.0406,-16.16244 0,-14.14214 28.2843,18.18275 20.2031,2.0203 -12.1219,14.14214 -4.0406,-8.08122 -26.264,-4.04061 c 0,0 6.061,-12.12183 -2.0203,0 -8.0812,12.12183 -14.1421,30.30457 -14.1421,30.30457 l -24.2437,-6.06091 -20.203,16.16244 -6.0609,-22.22336 -8.0812,-26.26396 0,-12.12183 -14.1422,-12.12183 6.0609,-12.12183 z"
         inkscape:path-effect="#path-effect4026"
         id="path4024"
         d="m 1048.5383,547.28591 24.2437,-6.06092 24.2437,-2.0203 2.0203,24.24366 12.1218,8.08122 10.1015,-4.04061 -10.1015,12.12183 4.0406,10.10153 -2.0203,12.12183 -12.1218,22.22335 16.1624,2.02031 4.0406,-16.16244 0,-14.14214 28.2843,18.18275 20.2031,2.0203 -12.1219,14.14214 -4.0406,-8.08122 -26.264,-4.04061 c -0.6728,-0.0359 -1.3475,-0.0359 -2.0203,0 -3.4089,0.18197 -6.7626,1.30656 -9.5921,3.21646 -2.8295,1.90989 -5.1267,4.59972 -6.5703,7.69319 -1.4436,3.09347 -2.0296,6.5819 -1.6759,9.97726 0.3537,3.39536 1.646,6.68813 3.6962,9.41766 l -24.2437,-6.06091 -20.203,16.16244 c -1.9112,-7.43696 -3.9318,-14.84582 -6.0609,-22.22336 -2.5399,-8.80101 -5.2342,-17.55746 -8.0812,-26.26396 l 0,-12.12183 -14.1422,-12.12183 6.0609,-12.12183 4.0406,-26.26397"
         style="fill:#a05a2c;fill-opacity:0.7157895;stroke:none" />
      <path
         inkscape:connector-curvature="0"
         inkscape:original-d="m 1282.8938,589.71232 -22.2234,2.02031 -2.0203,-16.16244 18.1827,-8.08122 4.0407,-8.08123 0,-22.22335 8.0812,12.12183 -2.0203,18.18275 -2.0203,12.12183 -2.0203,48.48732 2.0203,18.18274 -6.061,10.10153 -8.0812,4.04061 -2.0203,-18.18275 -6.0609,-14.14213 -12.1218,26.26396 -40.4061,26.26397 -6.0609,-6.06091 20.203,-16.16245 18.1828,-2.0203 2.0203,-18.18275 26.2639,-16.16244 6.0609,-10.10152 z"
         inkscape:path-effect="#path-effect4030"
         id="path4028"
         d="m 1282.8938,589.71232 -22.2234,2.02031 -2.0203,-16.16244 18.1827,-8.08122 4.0407,-8.08123 0,-22.22335 8.0812,12.12183 c -0.4756,6.08072 -1.1495,12.14593 -2.0203,18.18275 -0.5849,4.05471 -1.2585,8.09661 -2.0203,12.12183 l -2.0203,48.48732 2.0203,18.18274 -6.061,10.10153 -8.0812,4.04061 -2.0203,-18.18275 -6.0609,-14.14213 -12.1218,26.26396 -40.4061,26.26397 -6.0609,-6.06091 20.203,-16.16245 18.1828,-2.0203 2.0203,-18.18275 26.2639,-16.16244 6.0609,-10.10152 6.061,-22.22336"
         style="fill:#502d16;fill-opacity:0.7157895;stroke:none" />
      <path
         inkscape:connector-curvature="0"
         inkscape:original-d="m 1103.0866,688.70727 32.3249,4.04061 46.467,-8.08122 8.0813,14.14213 6.0609,4.04061 4.0406,-12.12183 -2.0203,16.16244 22.2233,-8.08122 12.1219,-12.12183 10.1015,0 6.0609,10.10153 -14.1421,16.16244 22.2233,2.0203 30.3046,-14.14213 18.1827,-22.22336 34.3452,-26.26397 -4.0406,-10.10152 -28.2843,0 -10.1015,-8.08122 8.0812,-10.10153 0,-26.26396 2.0203,-28.28427 -2.0203,24.24366 12.1219,8.08122 -4.0406,10.10152 -10.1016,16.16244 -2.0203,8.08122 40.4061,8.08122 -30.3045,58.58885 -38.3858,32.32488 -66.6701,46.46702 -42.4264,10.10153 -30.3046,0 32.3249,-12.12183 14.1421,-20.20306 -40.4061,6.06092 -6.0609,16.16244 c 0,0 -8.0812,6.06092 -8.0812,-2.0203 0,-8.08123 0,-42.42641 0,-42.42641 l -28.2843,10.10152 -26.2639,12.12183 -16.1625,0 28.2843,-12.12183 10.1015,-12.12183 -30.3046,-4.04061 -6.0609,12.12183 -26.264,12.12183 -16.1624,-10.10152 -20.2031,-18.18275 -12.12183,-12.12183 -16.16244,-2.0203 26.26397,-10.10153 30.3046,-2.0203 14.1422,26.26396 20.203,-10.10152 4.0406,0 30.3046,4.04061 -12.1218,-22.22336 6.0609,-10.10152 z"
         inkscape:path-effect="#path-effect4034"
         id="path4032"
         d="m 1103.0866,688.70727 32.3249,4.04061 46.467,-8.08122 8.0813,14.14213 6.0609,4.04061 4.0406,-12.12183 -2.0203,16.16244 22.2233,-8.08122 12.1219,-12.12183 10.1015,0 6.0609,10.10153 -14.1421,16.16244 22.2233,2.0203 30.3046,-14.14213 18.1827,-22.22336 34.3452,-26.26397 -4.0406,-10.10152 -28.2843,0 -10.1015,-8.08122 8.0812,-10.10153 0,-26.26396 2.0203,-28.28427 -2.0203,24.24366 12.1219,8.08122 -4.0406,10.10152 -10.1016,16.16244 -2.0203,8.08122 40.4061,8.08122 -30.3045,58.58885 -38.3858,32.32488 -66.6701,46.46702 -42.4264,10.10153 -30.3046,0 32.3249,-12.12183 14.1421,-20.20306 -40.4061,6.06092 -6.0609,16.16244 c 0.3472,0.64329 0.4929,1.39348 0.4121,2.12002 -0.081,0.72655 -0.3878,1.42589 -0.8657,1.97909 -0.4779,0.5532 -1.1238,0.95777 -1.8281,1.15378 -0.7042,0.19601 -1.463,0.18377 -2.165,-0.0203 -0.7019,-0.20402 -1.3448,-0.59698 -1.8646,-1.11097 -0.5199,-0.51398 -0.9169,-1.14581 -1.1905,-1.82373 -0.5471,-1.35583 -0.5794,-2.85617 -0.5794,-4.31823 l 0,-42.42641 -28.2843,10.10152 -26.2639,12.12183 -16.1625,0 28.2843,-12.12183 10.1015,-12.12183 -30.3046,-4.04061 -6.0609,12.12183 -26.264,12.12183 -16.1624,-10.10152 c -6.9275,-5.84165 -13.6665,-11.90677 -20.2031,-18.18275 -4.12223,-3.95788 -8.16395,-7.9996 -12.12183,-12.12183 l -16.16244,-2.0203 26.26397,-10.10153 30.3046,-2.0203 14.1422,26.26396 20.203,-10.10152 4.0406,0 30.3046,4.04061 -12.1218,-22.22336 6.0609,-10.10152 18.1827,0"
         style="fill:#784421;fill-opacity:0.7157895;stroke:none" />
      <path
         inkscape:connector-curvature="0"
         inkscape:original-d="m 1286.9343,375.55998 4.0407,30.30457 -4.0407,16.16244 -12.1218,16.16244 18.1828,12.12184 18.1827,10.10152 -6.0609,-18.18274 10.1015,-10.10153 0,-20.20305 -4.0406,-14.14214 4.0406,-18.18274 -14.1421,8.08122 z"
         inkscape:path-effect="#path-effect4038"
         id="path4036"
         d="m 1286.9343,375.55998 4.0407,30.30457 -4.0407,16.16244 -12.1218,16.16244 18.1828,12.12184 18.1827,10.10152 -6.0609,-18.18274 10.1015,-10.10153 0,-20.20305 -4.0406,-14.14214 4.0406,-18.18274 -14.1421,8.08122 -14.1422,-12.12183"
         style="fill:#784421;fill-opacity:0.7157895;stroke:none" />
      <path
         inkscape:connector-curvature="0"
         inkscape:original-d="m 876.81241,668.50421 34.34518,20.20306 34.34519,18.18274 12.12183,30.30458 18.18275,2.0203 -2.02031,22.22336 -8.08122,2.0203 -34.34519,-28.28427 -26.26396,-28.28427 z"
         inkscape:path-effect="#path-effect4042"
         id="path4040"
         d="m 876.81241,668.50421 c 11.2936,6.993 22.74593,13.72966 34.34518,20.20306 11.31239,6.3133 22.76452,12.37619 34.34519,18.18274 l 12.12183,30.30458 18.18275,2.0203 -2.02031,22.22336 -8.08122,2.0203 -34.34519,-28.28427 -26.26396,-28.28427 -28.28427,-38.3858"
         style="fill:#502d16;fill-opacity:0.7157895;stroke:none" />
      <path
         sodipodi:type="arc"
         style="fill:url(#radialGradient3242);fill-opacity:1;fill-rule:evenodd;stroke:url(#radialGradient3244);stroke-width:1px;stroke-linecap:butt;stroke-linejoin:miter;stroke-opacity:1"
         id="path4044"
         sodipodi:cx="-310.11682"
         sodipodi:cy="558.39758"
         sodipodi:rx="245.46707"
         sodipodi:ry="245.46707"
         d="m -550.47034,608.24002 c -27.52722,-132.74358 57.7675,-262.66874 190.51108,-290.19596 132.74359,-27.52721 262.668742,57.7675 290.195959,190.51109 27.527217,132.74358 -57.767499,262.66874 -190.511089,290.19595 -122.76178,25.45728 -244.97862,-45.68848 -283.46063,-165.01016"
         sodipodi:start="2.9371194"
         sodipodi:end="9.1128031"
         sodipodi:open="true"
         transform="matrix(1.0698048,0,0,1.0698048,1436.8719,-58.171195)" />
    </g>
  </g>
</svg>
