<?xml version="1.0" encoding="UTF-8" standalone="no"?>
<!-- Created with Inkscape (http://www.inkscape.org/) -->

<svg
   xmlns:dc="http://purl.org/dc/elements/1.1/"
   xmlns:cc="http://creativecommons.org/ns#"
   xmlns:rdf="http://www.w3.org/1999/02/22-rdf-syntax-ns#"
   xmlns:svg="http://www.w3.org/2000/svg"
   xmlns="http://www.w3.org/2000/svg"
   xmlns:xlink="http://www.w3.org/1999/xlink"
   xmlns:sodipodi="http://sodipodi.sourceforge.net/DTD/sodipodi-0.dtd"
   xmlns:inkscape="http://www.inkscape.org/namespaces/inkscape"
   width="210mm"
   height="297mm"
   id="svg2"
   version="1.1"
   inkscape:version="0.48.1 "
   sodipodi:docname="Documento nuevo 1">
  <defs
     id="defs4">
    <linearGradient
       inkscape:collect="always"
       xlink:href="#linearGradient4336"
       id="linearGradient4434"
       gradientUnits="userSpaceOnUse"
       x1="1268.2061"
       y1="1511.9749"
       x2="1723.8657"
       y2="1511.9749" />
    <linearGradient
       id="linearGradient4336">
      <stop
         style="stop-color:#ffa910;stop-opacity:1;"
         offset="0"
         id="stop4338" />
      <stop
         id="stop4354"
         offset="0.015625"
         style="stop-color:#000000;stop-opacity:0.98431373;" />
      <stop
         id="stop4352"
         offset="0.03125"
         style="stop-color:#000000;stop-opacity:0.96862745;" />
      <stop
         id="stop4350"
         offset="0.0625"
         style="stop-color:#000000;stop-opacity:0.9372549;" />
      <stop
         id="stop4348"
         offset="0.125"
         style="stop-color:#000000;stop-opacity:0.8745098;" />
      <stop
         id="stop4346"
         offset="0.25"
         style="stop-color:#000000;stop-opacity:0.74901961;" />
      <stop
         id="stop4344"
         offset="0.5"
         style="stop-color:#000000;stop-opacity:0.49803922;" />
      <stop
         style="stop-color:#000000;stop-opacity:0;"
         offset="1"
         id="stop4340" />
    </linearGradient>
    <inkscape:path-effect
       effect="spiro"
       id="path-effect4358"
       is_visible="true" />
    <inkscape:path-effect
       effect="spiro"
       id="path-effect4362"
       is_visible="true" />
    <inkscape:path-effect
       effect="spiro"
       id="path-effect4366"
       is_visible="true" />
    <inkscape:path-effect
       effect="spiro"
       id="path-effect4370"
       is_visible="true" />
    <inkscape:path-effect
       effect="spiro"
       id="path-effect4374"
       is_visible="true" />
    <inkscape:path-effect
       effect="spiro"
       id="path-effect4378"
       is_visible="true" />
    <inkscape:path-effect
       effect="spiro"
       id="path-effect4382"
       is_visible="true" />
    <inkscape:path-effect
       effect="spiro"
       id="path-effect4386"
       is_visible="true" />
    <inkscape:path-effect
       effect="spiro"
       id="path-effect4390"
       is_visible="true" />
    <radialGradient
       inkscape:collect="always"
       xlink:href="#linearGradient4405"
       id="radialGradient4436"
       gradientUnits="userSpaceOnUse"
       gradientTransform="matrix(1.9827042,1.0324614,-0.4618514,0.88692389,682.81919,510.3346)"
       cx="-433.35544"
       cy="556.36719"
       fx="-433.35544"
       fy="556.36719"
       r="338.96887" />
    <linearGradient
       id="linearGradient4405">
      <stop
         style="stop-color:#000000;stop-opacity:0;"
         offset="0"
         id="stop4407" />
      <stop
         id="stop4419"
         offset="0.0625"
         style="stop-color:#000000;stop-opacity:0.08780488;" />
      <stop
         id="stop4417"
         offset="0.22447056"
         style="stop-color:#000000;stop-opacity:0.07804878;" />
      <stop
         id="stop4415"
         offset="0.5657869"
         style="stop-color:#000000;stop-opacity:0.19512194;" />
      <stop
         id="stop4413"
         offset="0.79855192"
         style="stop-color:#000000;stop-opacity:0.20487805;" />
      <stop
         style="stop-color:#000000;stop-opacity:0.33170733;"
         offset="1"
         id="stop4409" />
    </linearGradient>
    <radialGradient
       inkscape:collect="always"
       xlink:href="#linearGradient4450"
       id="radialGradient4456"
       cx="878.83508"
       cy="1551.9315"
       fx="878.83508"
       fy="1551.9315"
       r="309.66858"
       gradientTransform="matrix(2.3365773,-1.2519418,0.76290347,1.4238544,-2317.8932,405.22155)"
       gradientUnits="userSpaceOnUse" />
    <linearGradient
       id="linearGradient4450">
      <stop
         style="stop-color:#000000;stop-opacity:0;"
         offset="0"
         id="stop4452" />
      <stop
         id="stop4464"
         offset="0.3250719"
         style="stop-color:#000000;stop-opacity:0.07804878;" />
      <stop
         id="stop4462"
         offset="0.3250719"
         style="stop-color:#000000;stop-opacity:0.10731708;" />
      <stop
         id="stop4460"
         offset="0.49999997"
         style="stop-color:#000000;stop-opacity:0.15609756;" />
      <stop
         id="stop4458"
         offset="0.48152635"
         style="stop-color:#000000;stop-opacity:0.1902439;" />
      <stop
         style="stop-color:#000000;stop-opacity:0.2;"
         offset="1"
         id="stop4454" />
    </linearGradient>
    <radialGradient
       inkscape:collect="always"
       xlink:href="#linearGradient4466"
       id="radialGradient4472"
       cx="1375.5955"
       cy="1510.1443"
       fx="1375.5955"
       fy="1510.1443"
       r="309.16858"
       gradientTransform="matrix(-0.03681136,0.03391926,-0.09819839,-0.10657121,1129.8591,1618.4877)"
       gradientUnits="userSpaceOnUse" />
    <linearGradient
       inkscape:collect="always"
       id="linearGradient4466">
      <stop
         style="stop-color:#000000;stop-opacity:1;"
         offset="0"
         id="stop4468" />
      <stop
         style="stop-color:#000000;stop-opacity:0;"
         offset="1"
         id="stop4470" />
    </linearGradient>
    <radialGradient
       r="309.66858"
       fy="1551.9315"
       fx="878.83508"
       cy="1551.9315"
       cx="878.83508"
       gradientTransform="matrix(2.3365773,-1.2519418,0.76290347,1.4238544,-2317.8932,405.22155)"
       gradientUnits="userSpaceOnUse"
       id="radialGradient3387"
       xlink:href="#linearGradient4450"
       inkscape:collect="always" />
    <radialGradient
       r="309.16858"
       fy="1510.1443"
       fx="1375.5955"
       cy="1510.1443"
       cx="1375.5955"
       gradientTransform="matrix(-0.03681136,0.03391926,-0.09819839,-0.10657121,1129.8591,1618.4877)"
       gradientUnits="userSpaceOnUse"
       id="radialGradient3389"
       xlink:href="#linearGradient4466"
       inkscape:collect="always" />
  </defs>
  <sodipodi:namedview
     id="base"
     pagecolor="#ffffff"
     bordercolor="#666666"
     borderopacity="1.0"
     inkscape:pageopacity="0.0"
     inkscape:pageshadow="2"
     inkscape:zoom="0.35"
     inkscape:cx="-11.428571"
     inkscape:cy="520"
     inkscape:document-units="px"
     inkscape:current-layer="layer1"
     showgrid="false"
     inkscape:window-width="1366"
     inkscape:window-height="706"
     inkscape:window-x="-8"
     inkscape:window-y="-8"
     inkscape:window-maximized="1" />
  <metadata
     id="metadata7">
    <rdf:RDF>
      <cc:Work
         rdf:about="">
        <dc:format>image/svg+xml</dc:format>
        <dc:type
           rdf:resource="http://purl.org/dc/dcmitype/StillImage" />
        <dc:title></dc:title>
      </cc:Work>
    </rdf:RDF>
  </metadata>
  <g
     inkscape:label="Capa 1"
     inkscape:groupmode="layer"
     id="layer1">
    <g
       transform="matrix(0.53456265,0,0,0.60981014,-70.204423,-380.65392)"
       id="g3309">
      <g
         transform="translate(1503.107,945.50278)"
         id="g4421">
        <path
           sodipodi:type="arc"
           style="fill:#d3bc5f;fill-rule:evenodd;stroke:url(#linearGradient4434);stroke-width:1px;stroke-linecap:butt;stroke-linejoin:miter;stroke-opacity:1"
           id="path4334"
           sodipodi:cx="1496.0359"
           sodipodi:cy="1511.9816"
           sodipodi:rx="227.28432"
           sodipodi:ry="227.28432"
           d="m 1273.4863,1558.132 c -25.4881,-122.9108 53.4885,-243.2118 176.3992,-268.7 122.9107,-25.4881 243.2118,53.4884 268.6999,176.3992 25.4882,122.9107 -53.4884,243.2118 -176.3991,268.6999 -113.6683,23.5716 -226.8321,-42.3041 -262.4635,-152.7872"
           sodipodi:start="2.9371194"
           sodipodi:end="9.1128031"
           sodipodi:open="true"
           transform="matrix(1.4346855,0,0,1.4346855,-2806.9323,-1640.7704)" />
        <path
           style="fill:#6c5b50;fill-opacity:0.92788463;stroke:none"
           d="m -634.33645,202.32983 27.63714,31.78263 62.18333,49.74674 76.00197,40.07373 60.80154,19.34604 17.96412,2.7637 -23.49144,-31.78263 -46.9831,-44.21934 -41.45556,-29.01892 -70.47449,-27.63701 -62.18351,-11.05494"
           id="path4356"
           inkscape:path-effect="#path-effect4358"
           inkscape:original-d="m -634.33645,202.32983 27.63714,31.78263 62.18333,49.74674 c -1.22638,89.71897 50.25757,27.89569 76.00197,40.07373 l 60.80154,19.34604 17.96412,2.7637 -23.49144,-31.78263 -46.9831,-44.21934 -41.45556,-29.01892 c -39.68484,-21.52631 -52.71893,-39.00466 -70.47449,-27.63701 z"
           inkscape:connector-curvature="0"
           sodipodi:nodetypes="ccccccccccc" />
        <path
           style="fill:#a18168;fill-opacity:0.99038463;stroke:none"
           d="m -631.57268,202.3297 -81.52946,2.7637 -60.80154,17.96412 26.25521,35.92824 69.09265,62.18333 c 22.22319,15.26236 44.80163,30.00747 67.71086,44.21934 23.16206,14.36872 46.66225,28.19237 70.47457,41.45565 l 100.87527,42.83742 99.49349,26.25522 -8.2911,-44.21934 -16.5823,-44.21934 -23.49141,-40.07373 -64.94718,-17.96412 -73.23828,-37.31002 -63.56521,-44.21921 -41.45557,-45.60126"
           id="path4360"
           inkscape:path-effect="#path-effect4362"
           inkscape:original-d="m -631.57268,202.3297 -81.52946,2.7637 -60.80154,17.96412 26.25521,35.92824 69.09265,62.18333 67.71086,44.21934 70.47457,41.45565 100.87527,42.83742 99.49349,26.25522 -8.2911,-44.21934 -16.5823,-44.21934 -23.49141,-40.07373 -64.94718,-17.96412 -73.23828,-37.31002 -63.56521,-44.21921 z"
           inkscape:connector-curvature="0"
           sodipodi:nodetypes="cccccccccccccccc" />
        <path
           style="fill:#deaf57;fill-opacity:0.79807691;stroke:none"
           d="m -776.6673,223.05738 44.21927,52.51045 95.34787,74.62018 76.00196,44.21935 100.87525,46.9829 106.4028,31.78276 13.8185,2.7637 4.14562,27.63701 2.7637,41.45564 -8.2911,55.27415 -98.1117,-27.63715 -128.51239,-53.89222 -77.38375,-41.45565 -92.58416,-63.56524 -106.40281,-87.05677 -26.25518,-27.63714 -11.05475,-9.67302 45.60112,-35.92811 59.41975,-30.40084"
           id="path4364"
           inkscape:path-effect="#path-effect4366"
           inkscape:original-d="m -776.6673,223.05738 44.21927,52.51045 95.34787,74.62018 76.00196,44.21935 100.87525,46.9829 106.4028,31.78276 13.8185,2.7637 4.14562,27.63701 2.7637,41.45564 -8.2911,55.27415 -98.1117,-27.63715 -128.51239,-53.89222 -77.38375,-41.45565 -92.58416,-63.56524 -106.40281,-87.05677 -26.25518,-27.63714 -11.05475,-9.67302 45.60112,-35.92811 z"
           inkscape:connector-curvature="0"
           sodipodi:nodetypes="ccccccccccccccccccc" />
        <path
           style="fill:#917f5d;fill-opacity:0.96634617;stroke:none"
           d="m -985.32725,560.22993 77.38377,62.18333 105.02089,69.09264 98.11157,52.51045 132.65803,58.03784 60.80155,17.96412 -45.60112,17.96413 -45.60127,9.67302 -42.83742,5.5274 -60.80153,0 -74.62011,-19.34591 -84.29305,-49.74674 -56.65609,-58.03785 c -22.37212,-33.5597 -39.67088,-70.49497 -51.1285,-109.16651 -5.49731,-18.55441 -9.6572,-37.50492 -12.43672,-56.65592"
           id="path4368"
           inkscape:path-effect="#path-effect4370"
           inkscape:original-d="m -985.32725,560.22993 77.38377,62.18333 105.02089,69.09264 98.11157,52.51045 132.65803,58.03784 60.80155,17.96412 -45.60112,17.96413 -45.60127,9.67302 -42.83742,5.5274 -60.80153,0 -74.62011,-19.34591 -84.29305,-49.74674 -56.65609,-58.03785 c 0,0 -49.74672,-102.25732 -51.1285,-109.16651 -1.38192,-6.90931 -12.43672,-56.65592 -12.43672,-56.65592 z"
           inkscape:connector-curvature="0"
           sodipodi:nodetypes="ccccccccccccccc" />
        <path
           style="fill:#c8a96d;fill-opacity:0.96634617;stroke:none"
           d="m -883.07004,289.38647 49.74672,46.98304 103.63904,81.52937 92.58417,63.56524 134.03983,69.09279 152.00378,46.98291 9.67302,-1.38179 -4.14548,16.58221 -85.67499,-20.72783 -111.93021,-44.21934 -107.78459,-58.03784 -124.36679,-84.29307 -113.31199,-100.87527 -5.52744,-2.7637 11.05493,-12.43672"
           id="path4372"
           inkscape:path-effect="#path-effect4374"
           inkscape:original-d="m -883.07004,289.38647 49.74672,46.98304 103.63904,81.52937 92.58417,63.56524 134.03983,69.09279 152.00378,46.98291 9.67302,-1.38179 -4.14548,16.58221 -85.67499,-20.72783 -111.93021,-44.21934 -107.78459,-58.03784 -124.36679,-84.29307 -113.31199,-100.87527 -5.52744,-2.7637 z"
           inkscape:connector-curvature="0"
           sodipodi:nodetypes="ccccccccccccccc" />
        <path
           style="fill:#776f5e;fill-opacity:0.96634617;stroke:none"
           d="m -362.11133,666.6326 4.14562,-22.1096 49.74674,41.4555 44.21935,51.12867 22.1096,30.4007 -6.90918,29.01892 -27.63714,6.90932 -63.56525,-8.2911 -100.87527,-34.54632 c -53.60542,-23.00377 -106.60129,-47.42795 -158.91325,-73.23827 -43.7915,-21.60639 -87.10376,-44.18407 -129.8942,-67.71086 l -200.36881,-128.51242 -169.96798,-145.09461 -16.5822,-55.27415 9.6729,-11.0548 19.346,-5.5274 30.4007,2.7637 70.47457,12.43672 76.00198,29.01893 -15.20043,19.3459 -24.87331,-11.0548 -48.36496,-9.67302 -33.16445,-2.7637 -19.346,12.43672 12.4367,42.83742 120.22134,109.16651 c 50.50858,36.12476 102.13043,70.69295 154.76763,103.63897 38.17092,23.89147 76.87569,46.93002 116.07569,69.09265 l 143.7127,64.94716 99.49349,35.92825 44.21934,11.0548 40.07372,1.38178 15.20042,-11.0548 -1.38192,-22.10961 -29.01892,-42.83756 -26.25522,-22.1096"
           id="path4376"
           inkscape:path-effect="#path-effect4378"
           inkscape:original-d="m -362.11133,666.6326 4.14562,-22.1096 49.74674,41.4555 44.21935,51.12867 22.1096,30.4007 -6.90918,29.01892 -27.63714,6.90932 -63.56525,-8.2911 -100.87527,-34.54632 -158.91325,-73.23827 -129.8942,-67.71086 -200.36881,-128.51242 -169.96798,-145.09461 -16.5822,-55.27415 9.6729,-11.0548 19.346,-5.5274 30.4007,2.7637 70.47457,12.43672 76.00198,29.01893 -15.20043,19.3459 -24.87331,-11.0548 -48.36496,-9.67302 -33.16445,-2.7637 -19.346,12.43672 12.4367,42.83742 120.22134,109.16651 154.76763,103.63897 116.07569,69.09265 143.7127,64.94716 99.49349,35.92825 44.21934,11.0548 40.07372,1.38178 15.20042,-11.0548 -1.38192,-22.10961 -29.01892,-42.83756 z"
           inkscape:connector-curvature="0"
           sodipodi:nodetypes="cccccccccccccccccccccccccccccccccccc" />
        <path
           style="fill:#f2e6d4;fill-opacity:0.96634617;stroke:none"
           d="m -346.91091,609.97667 -9.67288,33.16441 c 12.08894,10.93168 24.06582,21.98731 35.9281,33.16454 12.56625,11.84055 25.0039,23.81757 37.31003,35.92824 l 30.40084,37.31003 12.43672,23.49138 -5.52742,12.43672 -9.673,12.43672 -38.69194,4.14562 -80.14745,-17.96412 L -478.18702,745.39827 -696.5199,637.61368 -934.19868,486.99166 c -44.19581,-34.2659 -87.07542,-70.2294 -128.51242,-107.78459 -13.0414,-11.81966 -25.9399,-23.7969 -38.6919,-35.92824 l -15.2003,-53.89223 15.2003,-12.43672 42.8375,-2.7637 73.23828,16.5822 74.61999,27.63715 20.72788,-24.87345 c -22.9612,-9.83778 -45.99286,-19.51109 -69.09264,-29.01892 -32.11377,-13.21798 -64.35921,-26.11614 -96.72981,-38.69194 l -120.2213,-27.63701 -41.4556,4.14562 -19.3459,12.43659 -4.1457,20.72782 22.1098,46.98304 84.2931,87.05677 153.38567,120.22131 201.75068,132.6579 258.4066,138.18543 179.64094,74.62005 125.74871,40.07372 64.94717,1.38192 24.8733,-6.90932 9.67302,-20.72782 -5.5274,-23.49152 -29.01892,-44.21921 -78.76567,-81.52937 -117.45761,-89.82047"
           id="path4380"
           inkscape:path-effect="#path-effect4382"
           inkscape:original-d="m -346.91091,609.97667 -9.67288,33.16441 35.9281,33.16454 37.31003,35.92824 30.40084,37.31003 12.43672,23.49138 -5.52742,12.43672 -9.673,12.43672 -38.69194,4.14562 -80.14745,-17.96412 -103.63911,-38.69194 -218.33288,-107.78459 -237.67878,-150.62202 -128.51242,-107.78459 -38.6919,-35.92824 -15.2003,-53.89223 15.2003,-12.43672 42.8375,-2.7637 73.23828,16.5822 74.61999,27.63715 20.72788,-24.87345 -69.09264,-29.01892 -96.72981,-38.69194 -120.2213,-27.63701 -41.4556,4.14562 -19.3459,12.43659 -4.1457,20.72782 22.1098,46.98304 84.2931,87.05677 153.38567,120.22131 201.75068,132.6579 258.4066,138.18543 179.64094,74.62005 125.74871,40.07372 64.94717,1.38192 24.8733,-6.90932 9.67302,-20.72782 -5.5274,-23.49152 -29.01892,-44.21921 -78.76567,-81.52937 z"
           inkscape:connector-curvature="0"
           sodipodi:nodetypes="ccccccccccccccccccccccccccccccccccccccccc" />
        <path
           style="fill:#ac987a;fill-opacity:0.96634617;stroke:none"
           d="m -344.14721,608.59475 111.93021,87.05677 82.91115,77.38375 41.45564,58.03798 8.291099,23.49139 -6.909179,16.58234 -24.87344,16.58222 -53.89222,-1.3818 -98.11171,-22.10974 -147.85832,-58.03785 -183.78654,-88.43855 -270.84324,-160.29517 c -59.46376,-34.3503 -116.33424,-73.18866 -169.96804,-116.07569 -61.1454,-48.89352 -118.0802,-103.05097 -169.968,-161.67682 l -24.8734,-49.74674 4.1455,-20.72782 23.4916,-12.43672 34.5463,0 55.2741,6.90932 69.0928,19.3459 c 27.6202,10.63808 55.2573,21.2323 82.91117,31.78262 23.0193,8.78217 46.05021,17.53392 69.09265,26.25522 l 23.49156,11.05494 15.20035,-12.43685 c -24.92168,-9.0811 -49.79548,-18.29361 -74.62002,-27.63701 -56.92051,-21.42362 -113.58211,-43.53542 -169.96801,-66.32895 l -77.3838,-22.1096 -67.7109,-8.2911 -29.0189,8.2911 -22.1097,12.43658 4.1456,41.45565 62.1835,81.52937 c 34.6709,32.20893 70.1535,63.54421 106.4026,93.96608 44.4761,37.32632 90.1064,73.2774 136.8036,107.78459 l 309.53519,190.69574 247.35183,124.36693 192.07766,74.62007 107.78459,30.4008 58.037839,6.9092 35.92825,-6.9092 16.58221,-24.8734 -6.90932,-27.63702 -35.92812,-55.27415 -51.128659,-55.27414 -84.29307,-73.23827 c -31.25239,-20.41873 -61.68576,-42.09098 -91.20239,-64.94716 -11.66037,-9.0292 -23.17774,-18.24308 -34.54632,-27.63701 l 1.38186,2.7637 -4.14556,13.8185"
           id="path4384"
           inkscape:path-effect="#path-effect4386"
           inkscape:original-d="m -344.14721,608.59475 111.93021,87.05677 82.91115,77.38375 41.45564,58.03798 8.291099,23.49139 -6.909179,16.58234 -24.87344,16.58222 -53.89222,-1.3818 -98.11171,-22.10974 -147.85832,-58.03785 -183.78654,-88.43855 -270.84324,-160.29517 c 0,0 -158.91324,-116.07569 -169.96804,-116.07569 -11.0549,0 -169.968,-161.67682 -169.968,-161.67682 l -24.8734,-49.74674 4.1455,-20.72782 23.4916,-12.43672 34.5463,0 55.2741,6.90932 69.0928,19.3459 82.91117,31.78262 69.09265,26.25522 23.49156,11.05494 15.20035,-12.43685 -74.62002,-27.63701 -169.96801,-66.32895 -77.3838,-22.1096 -67.7109,-8.2911 -29.0189,8.2911 -22.1097,12.43658 4.1456,41.45565 62.1835,81.52937 106.4026,93.96608 136.8036,107.78459 309.53519,190.69574 247.35183,124.36693 192.07766,74.62007 107.78459,30.4008 58.037839,6.9092 35.92825,-6.9092 16.58221,-24.8734 -6.90932,-27.63702 -35.92812,-55.27415 -51.128659,-55.27414 -84.29307,-73.23827 -91.20239,-64.94716 -34.54632,-27.63701 1.38186,2.7637 z"
           inkscape:connector-curvature="0"
           sodipodi:nodetypes="ccccccccccccscccccccccccccccccccccccccccccccccccc" />
        <path
           style="fill:#b5bea5;fill-opacity:0.96634617;stroke:none"
           d="m -986.70245,516.01729 151.44115,106.50226 163.94546,95.29137 c 41.30009,19.51939 82.99236,38.209 125.04315,56.05375 22.5913,9.58689 45.28607,18.92995 68.07903,28.02701 l -25.00862,11.21075 -223.68829,-102.29823 c -52.26053,-32.07263 -104.13528,-64.77385 -155.60926,-98.0942 -34.9202,-22.60469 -69.65594,-45.49432 -104.20262,-68.66584 l 0,-28.02687"
           id="path4388"
           inkscape:path-effect="#path-effect4390"
           inkscape:original-d="m -986.70245,516.01729 151.44115,106.50226 163.94546,95.29137 125.04315,56.05375 68.07903,28.02701 -25.00862,11.21075 L -726.89057,710.8042 -882.49983,612.71 -986.70245,544.04416 z"
           inkscape:connector-curvature="0" />
        <path
           sodipodi:type="arc"
           style="fill:url(#radialGradient4436);fill-opacity:1;fill-rule:evenodd;stroke:#000000;stroke-width:1px;stroke-linecap:butt;stroke-linejoin:miter;stroke-opacity:1"
           id="path4403"
           sodipodi:cx="-433.35544"
           sodipodi:cy="556.37726"
           sodipodi:rx="338.40109"
           sodipodi:ry="338.40109"
           d="m -764.70699,625.09008 c -37.94904,-183.00041 79.63832,-362.11533 262.63873,-400.06437 183.00041,-37.94904 362.11533,79.63832 400.06437,262.63873 37.949042,183.0004 -79.63832,362.11532 -262.63873,400.06437 -169.23948,35.09542 -337.72772,-62.98618 -390.77904,-227.48314"
           sodipodi:start="2.9371194"
           sodipodi:end="9.1128031"
           sodipodi:open="true"
           transform="matrix(0.95827772,0,0,0.95827772,-244.35517,-5.0713382)" />
      </g>
      <path
         transform="matrix(1.0521927,0,0,1.0521927,-213.81978,-89.929065)"
         sodipodi:open="true"
         sodipodi:end="9.1128031"
         sodipodi:start="2.9371194"
         d="m 697.38362,1553.533 c -34.6639,-167.1586 72.74426,-330.7681 239.90285,-365.432 167.15863,-34.6639 330.76803,72.7443 365.43193,239.9029 34.6639,167.1586 -72.7442,330.768 -239.9028,365.4319 -154.58894,32.0573 -308.49164,-57.5336 -356.95046,-207.7905"
         sodipodi:ry="309.10669"
         sodipodi:rx="309.10669"
         sodipodi:cy="1490.7684"
         sodipodi:cx="1000.051"
         id="path4438"
         style="fill:url(#radialGradient3387);fill-opacity:1;fill-rule:evenodd;stroke:url(#radialGradient3389)"
         sodipodi:type="arc" />
    </g>
  </g>
</svg>
