<?xml version="1.0" encoding="UTF-8" standalone="no"?>
<!-- Created with Inkscape (http://www.inkscape.org/) -->

<svg
   xmlns:dc="http://purl.org/dc/elements/1.1/"
   xmlns:cc="http://creativecommons.org/ns#"
   xmlns:rdf="http://www.w3.org/1999/02/22-rdf-syntax-ns#"
   xmlns:svg="http://www.w3.org/2000/svg"
   xmlns="http://www.w3.org/2000/svg"
   xmlns:xlink="http://www.w3.org/1999/xlink"
   xmlns:sodipodi="http://sodipodi.sourceforge.net/DTD/sodipodi-0.dtd"
   xmlns:inkscape="http://www.inkscape.org/namespaces/inkscape"
   width="210mm"
   height="297mm"
   id="svg3769"
   version="1.1"
   inkscape:version="0.48.1 "
   sodipodi:docname="marte.svg">
  <defs
     id="defs3771">
    <linearGradient
       id="linearGradient4463">
      <stop
         id="stop4465"
         offset="0"
         style="stop-color:#000000;stop-opacity:0;" />
      <stop
         style="stop-color:#000000;stop-opacity:0.1;"
         offset="0.25"
         id="stop4467" />
      <stop
         style="stop-color:#000000;stop-opacity:0.25;"
         offset="0.5"
         id="stop4469" />
      <stop
         id="stop4471"
         offset="1"
         style="stop-color:#000000;stop-opacity:0.5;" />
    </linearGradient>
    <linearGradient
       id="linearGradient4447">
      <stop
         style="stop-color:#000000;stop-opacity:1;"
         offset="0"
         id="stop4449" />
      <stop
         id="stop4457"
         offset="0.25"
         style="stop-color:#000000;stop-opacity:0.74901961;" />
      <stop
         id="stop4455"
         offset="0.5"
         style="stop-color:#000000;stop-opacity:0.49803922;" />
      <stop
         style="stop-color:#000000;stop-opacity:0;"
         offset="1"
         id="stop4451" />
    </linearGradient>
    <linearGradient
       id="linearGradient4437">
      <stop
         id="stop4439"
         offset="0"
         style="stop-color:#ff0000;stop-opacity:0.6735751;" />
      <stop
         id="stop4441"
         offset="1"
         style="stop-color:#ff0000;stop-opacity:0" />
    </linearGradient>
    <linearGradient
       inkscape:collect="always"
       id="linearGradient4427">
      <stop
         style="stop-color:#ff0000;stop-opacity:1;"
         offset="0"
         id="stop4429" />
      <stop
         style="stop-color:#ff0000;stop-opacity:0;"
         offset="1"
         id="stop4431" />
    </linearGradient>
    <linearGradient
       inkscape:collect="always"
       id="linearGradient4407">
      <stop
         style="stop-color:#ff0000;stop-opacity:1;"
         offset="0"
         id="stop4409" />
      <stop
         style="stop-color:#ff0000;stop-opacity:0;"
         offset="1"
         id="stop4411" />
    </linearGradient>
    <linearGradient
       inkscape:collect="always"
       id="linearGradient4391">
      <stop
         style="stop-color:#ff0000;stop-opacity:1;"
         offset="0"
         id="stop4393" />
      <stop
         style="stop-color:#ff0000;stop-opacity:0;"
         offset="1"
         id="stop4395" />
    </linearGradient>
    <filter
       inkscape:collect="always"
       id="filter4335">
      <feGaussianBlur
         inkscape:collect="always"
         stdDeviation="1.0844747"
         id="feGaussianBlur4337" />
    </filter>
    <filter
       inkscape:collect="always"
       id="filter4339">
      <feGaussianBlur
         inkscape:collect="always"
         stdDeviation="1.8601676"
         id="feGaussianBlur4341" />
    </filter>
    <filter
       inkscape:collect="always"
       id="filter4343">
      <feGaussianBlur
         inkscape:collect="always"
         stdDeviation="1.9233299"
         id="feGaussianBlur4345" />
    </filter>
    <filter
       inkscape:collect="always"
       id="filter4355">
      <feGaussianBlur
         inkscape:collect="always"
         stdDeviation="2.5013211"
         id="feGaussianBlur4357" />
    </filter>
    <filter
       inkscape:collect="always"
       id="filter4359">
      <feGaussianBlur
         inkscape:collect="always"
         stdDeviation="3.4537148"
         id="feGaussianBlur4361" />
    </filter>
    <filter
       inkscape:collect="always"
       id="filter4363">
      <feGaussianBlur
         inkscape:collect="always"
         stdDeviation="1.1135103"
         id="feGaussianBlur4365" />
    </filter>
    <radialGradient
       inkscape:collect="always"
       xlink:href="#linearGradient4391"
       id="radialGradient4397"
       cx="361.42857"
       cy="512.36221"
       fx="361.42857"
       fy="512.36221"
       r="312.85714"
       gradientTransform="matrix(1,0,0,0.95890415,0,21.05596)"
       gradientUnits="userSpaceOnUse" />
    <linearGradient
       inkscape:collect="always"
       xlink:href="#linearGradient4407"
       id="linearGradient4415"
       x1="160"
       y1="806.64789"
       x2="680"
       y2="806.64789"
       gradientUnits="userSpaceOnUse"
       gradientTransform="translate(-611.1469,-70.03724)" />
    <linearGradient
       inkscape:collect="always"
       xlink:href="#linearGradient4407"
       id="linearGradient4421"
       gradientUnits="userSpaceOnUse"
       gradientTransform="translate(119.20723,-19.260241)"
       x1="160"
       y1="806.64789"
       x2="680"
       y2="806.64789" />
    <linearGradient
       inkscape:collect="always"
       xlink:href="#linearGradient4427"
       id="linearGradient4433"
       x1="525.3634"
       y1="752.7785"
       x2="674.28572"
       y2="512.36221"
       gradientUnits="userSpaceOnUse"
       gradientTransform="translate(-10.618667,-13.818881)" />
    <linearGradient
       inkscape:collect="always"
       xlink:href="#linearGradient4437"
       id="linearGradient4435"
       gradientUnits="userSpaceOnUse"
       x1="495.72513"
       y1="1043.5249"
       x2="364.76505"
       y2="759.87415"
       gradientTransform="translate(-8.8246458,-11.976355)" />
    <radialGradient
       inkscape:collect="always"
       xlink:href="#linearGradient4447"
       id="radialGradient4453"
       cx="361.42857"
       cy="512.36221"
       fx="361.42857"
       fy="512.36221"
       r="312.85714"
       gradientTransform="matrix(1,0,0,0.95890415,785.89868,63.482367)"
       gradientUnits="userSpaceOnUse" />
    <radialGradient
       inkscape:collect="always"
       xlink:href="#linearGradient4463"
       id="radialGradient4461"
       gradientUnits="userSpaceOnUse"
       gradientTransform="matrix(1,0,0,0.95890415,653.12128,57.825511)"
       cx="391.65015"
       cy="786.25781"
       fx="391.65015"
       fy="786.25781"
       r="312.85714" />
    <radialGradient
       inkscape:collect="always"
       xlink:href="#linearGradient4463"
       id="radialGradient4685"
       gradientUnits="userSpaceOnUse"
       gradientTransform="matrix(1,0,0,0.95890415,-8.8246451,9.0795969)"
       cx="391.65015"
       cy="786.25781"
       fx="391.65015"
       fy="786.25781"
       r="312.85714" />
    <radialGradient
       inkscape:collect="always"
       xlink:href="#linearGradient4447"
       id="radialGradient4687"
       gradientUnits="userSpaceOnUse"
       gradientTransform="matrix(1,0,0,0.95890415,-10.618667,7.2370792)"
       cx="361.42857"
       cy="512.36221"
       fx="361.42857"
       fy="512.36221"
       r="312.85714" />
    <linearGradient
       inkscape:collect="always"
       xlink:href="#linearGradient4437"
       id="linearGradient3080"
       gradientUnits="userSpaceOnUse"
       gradientTransform="matrix(0.85748497,0,0,0.84445475,53.72901,158.23564)"
       x1="495.72513"
       y1="1043.5249"
       x2="364.76505"
       y2="759.87415" />
    <linearGradient
       inkscape:collect="always"
       xlink:href="#linearGradient4427"
       id="linearGradient3082"
       gradientUnits="userSpaceOnUse"
       gradientTransform="matrix(0.85748497,0,0,0.84445475,44.13604,117.50172)"
       x1="525.3634"
       y1="752.7785"
       x2="674.28572"
       y2="512.36221" />
    <radialGradient
       inkscape:collect="always"
       xlink:href="#linearGradient4463"
       id="radialGradient3084"
       gradientUnits="userSpaceOnUse"
       gradientTransform="matrix(0.85748497,0,0,0.80975116,53.72901,176.01644)"
       cx="391.65015"
       cy="786.25781"
       fx="391.65015"
       fy="786.25781"
       r="312.85714" />
    <radialGradient
       inkscape:collect="always"
       xlink:href="#linearGradient4447"
       id="radialGradient3086"
       gradientUnits="userSpaceOnUse"
       gradientTransform="matrix(0.85748497,0,0,0.80975116,44.136039,135.28252)"
       cx="361.42857"
       cy="512.36221"
       fx="361.42857"
       fy="512.36221"
       r="312.85714" />
  </defs>
  <sodipodi:namedview
     id="base"
     pagecolor="#ffffff"
     bordercolor="#666666"
     borderopacity="1.0"
     inkscape:pageopacity="0.0"
     inkscape:pageshadow="2"
     inkscape:zoom="0.49497475"
     inkscape:cx="435.7136"
     inkscape:cy="522.76352"
     inkscape:document-units="px"
     inkscape:current-layer="layer1"
     showgrid="false"
     inkscape:window-width="1366"
     inkscape:window-height="706"
     inkscape:window-x="-8"
     inkscape:window-y="-8"
     inkscape:window-maximized="1" />
  <metadata
     id="metadata3774">
    <rdf:RDF>
      <cc:Work
         rdf:about="">
        <dc:format>image/svg+xml</dc:format>
        <dc:type
           rdf:resource="http://purl.org/dc/dcmitype/StillImage" />
        <dc:title />
      </cc:Work>
    </rdf:RDF>
  </metadata>
  <g
     inkscape:label="Capa 1"
     inkscape:groupmode="layer"
     id="layer1">
    <g
       id="g4403" />
    <g
       id="g3052"
       transform="matrix(1.1662013,0,0,1.1841961,-63.855007,-155.50935)">
      <g
         transform="translate(13.811761,12.711623)"
         id="g4663">
        <g
           id="g4642">
          <g
             id="g4622">
            <g
               id="g4603">
              <g
                 id="g4585">
                <g
                   id="g4568">
                  <g
                     id="g4552">
                    <g
                       id="g4537">
                      <g
                         id="g4523">
                        <g
                           id="g4510">
                          <g
                             id="g4498">
                            <g
                               id="g4487">
                              <g
                                 id="g4477">
                                <g
                                   id="g4367">
                                <path
                                   transform="matrix(1.2032967,0,0,1.1538462,-143.95604,-418.38539)"
                                   d="m 680,806.64789 c 0,143.59403 -116.40597,260.00001 -260,260.00001 -143.59403,0 -260,-116.40598 -260,-260.00001 0,-143.59404 116.40597,-260 260,-260 143.59403,0 260,116.40596 260,260 z"
                                   sodipodi:ry="260"
                                   sodipodi:rx="260"
                                   sodipodi:cy="806.64789"
                                   sodipodi:cx="420"
                                   id="path3777"
                                   style="fill:#d45500;fill-opacity:1;fill-rule:evenodd;stroke:none"
                                   sodipodi:type="arc" />
                                </g>
                                <path
                                   style="fill:#aa4400;stroke:none;filter:url(#filter4355)"
                                   d="m 48.928571,526.6479 c 10.659435,15.64959 38.800505,-0.27637 31.857803,9.7964 -6.926652,10.04948 47.289126,107.83114 38.688966,43.81902 -1.61363,-12.01048 18.83944,-3.26469 11.45988,-31.91447 -3.14285,-12.20154 13.54898,-30.17483 13.08751,-20.80015 -0.82762,16.8131 27.11348,-4.29789 22.4687,4.21346 -28.562,52.3385 21.55543,24.30163 -7.06092,55.38556 -21.21455,23.04387 13.35743,25.89901 27.00285,18.02856 7.4713,-4.30933 4.92463,-28.64098 10.04186,-30.54995 6.26585,-2.33746 13.24429,18.54296 27.07122,9.54472 26.87617,-17.49038 -13.75639,36.70142 12.16785,33.90542 14.67399,0.29202 -9.45942,-22.58847 24.38205,-21.46956 7.69701,0.25449 -9.54458,-14.61498 -18.90003,-20.49504 -12.34293,-7.75774 8.35515,-11.17041 12.9313,-17.43658 5.14863,-7.05006 -4.41393,-16.28803 5.18872,-11.99258 25.8623,11.56873 -18.92067,-22.67018 0.62027,-21.44626 24.65102,1.54397 19.46026,-18.10699 10.0634,-25.73141 -7.44415,-8.22915 35.55396,-18.32562 31.61763,1.57906 -1.53957,7.78507 4.09289,22.30801 3.90088,24.54879 -3.04985,35.59269 4.68927,18.71095 10.07015,14.91489 11.4611,-8.08547 42.0936,-1.13375 27.97651,11.18844 -33.071,28.86621 -0.97345,14.24891 -1.89146,33.32902 -1.23826,25.73633 26.1191,-50.15328 28.54777,-24.65723 0.99543,10.44997 25.63447,22.50567 22.68863,10.58999 -5.85588,-23.6865 1.11056,-26.46549 7.08989,-31.49296 7.88903,-0.24209 -16.39833,-57.9907 -2.59159,-45.37226 20.28548,18.5396 35.92171,0.21413 14.52323,-3.18272 -17.30998,-2.74783 -20.57469,-25.39048 -13.91701,-19.41659 16.23289,14.56565 16.36921,-15.40781 20.91253,-10.96305 2.24114,2.19253 17.2168,-0.94808 13.80414,5.52289 -9.01326,17.09064 3.45888,7.52448 3.35237,15.58113 -0.10181,7.70141 -1.96725,15.07921 8.1432,18.88038 32.1222,12.0768 18.1335,-11.15724 6.87689,-26.61501 -2.82157,-3.87462 6.18362,-10.85013 0.71754,-25.14988 -2.7754,-7.26069 5.33179,-11.30362 9.05857,-2.6638 17.82951,41.33429 28.37611,23.57008 24.83442,-2.33538 2.61027,-5.66335 5.49827,-8.08302 8.56058,-7.95103 4.50734,0.19428 4.5364,11.75096 14.32522,14.96005 45.28943,14.84737 27.09353,23.49331 13.68082,32.24032 -6.65983,4.34317 33.85033,9.09781 6.35182,19.01927 -46.63714,16.82667 -31.72677,39.59213 6.93517,23.20259 26.83442,-11.37563 35.94868,-0.24086 25.81519,3.58504 -11.07592,4.18172 -25.09841,4.0901 -6.16555,12.29079 6.80929,2.94941 10.71024,25.6988 -6.61738,12.70798 -5.88154,-4.40949 -8.82447,12.82095 -5.75045,15.91182 12.99359,29.74894 15.71993,9.25733 21.30905,10.47649 11.0171,2.40316 10.24232,-11.20566 15.78882,-10.33327 51.60173,8.11624 20.21517,-3.77199 12.89008,-19.18306 -2.58678,-5.44227 31.53228,4.52047 9.63367,-18.24718 -39.40994,-40.9739 16.36785,-39.3694 8.26814,-16.82527 -7.86103,21.87983 37.41642,-12.11699 9.6769,-19.39889 -24.76979,-6.50231 -22.99219,-31.23485 -16.8803,-24.29769 20.41174,23.16785 10.55836,-3.15244 16.19297,-1.34731 38.1538,12.22317 16.8649,-1.3974 20.27096,-5.38207 2.62534,-4.4496 -24.70524,-13.38912 -10.39866,-27.68511 6.26069,-10.20687 10.10843,-17.33275 -9.52941,-32.53104 -8.13932,-6.29924 -11.75515,19.11671 -23.80236,16.52905 -22.54477,-4.84247 10.32378,-28.77976 18.51361,-29.44377 30.25737,-2.45317 -16.35169,-39.97483 -13.79382,-14.98497 1.83992,17.97563 -7.01138,28.11213 -23.2139,20.0657 -53.45749,-26.54785 -23.22418,-34.47651 2.00501,-13.50394 5.68989,4.72991 32.15394,-19.92651 2.67176,-22.46208 -10.27214,-0.88344 -7.29355,-19.49456 -14.40108,-19.82065 -6.63943,-0.30462 -4.86615,-20.75911 -16.01315,-15.81896 -35.85965,15.89237 -10.00464,-14.50107 -13.46657,-17.48709 4.22687,-8.7383 -17.42424,2.39559 -17.09155,-3.05481 -8.91894,-6.30851 -9.77785,4.00475 -6.6847,9.17867 7.01626,11.73607 12.02078,100.48828 -22.37949,8.08343 -3.82772,-10.28189 -5.81606,-15.83453 -27.75601,-11.6804 -0.0871,-0.0283 -3.32414,3.99888 -9.8478,-2.1482 -22.8521,-21.53299 -7.21973,1.15889 -11.60831,3.70807 -47.12348,27.37239 -21.49142,0.35854 -22.00107,-10.72929 -1.47135,-32.01066 -45.25673,-22.56763 -20.41425,-3.4928 5.97565,4.58829 -8.51511,12.0785 -11.88111,12.963 -5.92259,1.55631 -11.77883,2.68312 -17.47857,2.88661 -14.45125,1.08144 -9.44549,-5.51982 -9.20119,-10.82315 0.63875,-13.86625 -21.60851,-19.25512 5.35313,-17.93605 17.72234,0.92069 1.17239,-7.23071 -1.56909,-11.72692 -2.92803,-4.01748 -19.69271,0.5112 -2.16008,-16.14374 8.89889,-11.47582 15.07909,-21.52433 -2.55188,-19.07198 -9.50452,0.71551 -27.56026,5.09582 -1.27478,-9.52725 31.58326,-21.55271 4.09277,-13.56855 -2.16753,-16.19948 C 115.99028,223.72907 39.66219,425.92133 48.928571,526.6479 z"
                                   id="path3779"
                                   inkscape:connector-curvature="0"
                                   sodipodi:nodetypes="cssssssssscssssscssssssscsssssssssscsssssssscssssssssccsssssssssccsscssssscsccccccc" />
                                <path
                                   style="fill:#aa4400;stroke:none;filter:url(#filter4359)"
                                   d="m 113.21887,694.33976 c -21.348121,-25.50062 23.5977,-17.56071 33.24015,3.09455 12.00202,14.22296 22.20959,20.2169 35.4711,3.30224 34.16047,-32.57163 25.96541,0.14705 36.19287,3.36943 29.30954,37.21328 38.41603,38.06106 27.31946,2.54335 1.59591,-3.44398 14.66624,-22.60334 30.32389,2.82306 11.80941,60.4961 24.78322,14.07889 36.88007,3.43341 3.40573,-5.6458 29.59734,-26.50916 32.87419,3.06047 5.99796,86.00196 19.84941,38.99517 36.37452,3.38635 2.62611,-12.29039 22.88629,-16.99836 29.58632,-6.14309 40.82527,66.1445 37.23135,21.12999 26.77349,-5.53724 -6.56802,-16.74823 12.80613,-19.45899 26.19448,-5.3931 38.1592,40.09029 35.55223,19.99372 21.15579,-4.32965 -14.96937,-25.29137 40.87798,-14.62712 48.23824,-9.47146 45.07103,31.571 43.85476,9.88587 40.56628,-12.4764 -4.13271,-28.10314 22.22825,19.02846 45.24589,-14.80545 13.72375,-20.17271 16.64939,-9.75074 15.25528,-5.04561 -16.26352,39.26138 -108.08296,151.71251 -268.73351,156.0261 -81.9729,2.20104 -177.63052,-27.04231 -252.95851,-117.83696 z"
                                   id="path3783"
                                   inkscape:connector-curvature="0"
                                   sodipodi:nodetypes="cccccccccssssssscsc" />
                                <path
                                   style="opacity:0.5;fill:#d45500;stroke:none;filter:url(#filter4363)"
                                   d="m 93.944187,423.03715 c -3.462751,-16.56246 -4.621542,14.10629 -6.877499,22.2831 -2.534599,9.76698 -3.976204,12.97601 -5.913702,19.16039 -5.598769,9.67146 8.257139,13.89841 -6.433819,20.84557 -13.920071,3.26278 -28.222846,6.4212 -6.028794,19.53329 10.987966,2.30362 8.50569,4.99647 6.748167,7.66837 -8.428635,8.75635 7.196231,10.4971 13.230812,15.03501 12.683168,5.76949 10.428155,10.95822 14.423138,16.38993 2.37955,8.64801 6.39563,9.11338 10.0446,11.41432 14.25389,12.25067 6.47571,-8.0222 8.17446,-14.30531 -0.22817,-10.65094 5.41063,-13.96815 10.36572,-18.14001 5.60145,-5.63971 5.27701,-7.57574 5.70348,-9.98109 5.75823,-31.33218 -6.9134,-17.13177 -11.30262,-23.39379 -13.33694,-12.46988 -9.51899,-17.87598 -12.62639,-26.13369 -2.1033,-14.13183 -6.65637,-16.83136 -10.66463,-22.07331 -3.801648,-5.53159 -8.830864,-10.2448 -8.842923,-18.30278 z"
                                   id="path3785"
                                   inkscape:connector-curvature="0"
                                   sodipodi:nodetypes="cccccccccccccccc" />
                                <path
                                   style="opacity:0.5;fill:#d45500;stroke:none;filter:url(#filter4339)"
                                   d="m 328.29958,280.60564 c 1.52183,3.14673 2.6811,8.83136 4.8104,7.7258 14.99271,2.96386 14.15278,7.41203 7.71162,12.38532 -7.55031,7.5653 2.73572,9.21157 6.22573,9.9989 10.93125,1.13975 8.03975,6.88708 7.39947,11.884 -2.3241,9.56174 -3.10847,17.25962 7.18781,11.54406 21.10422,-13.04664 28.07539,-7.29997 16.94859,2.86145 -42.09724,43.07597 -5.30565,18.22041 15.37091,9.54481 9.93612,-6.84215 7.86027,5.6427 26.38671,-2.49482 54.46512,-18.26831 41.34609,4.97433 19.07554,3.22055 -16.02401,1.90862 -12.05763,4.8978 -3.39208,8.14099 30.50659,9.50628 -0.74867,10.45806 -4.07946,9.79071 -14.44312,0.98437 -19.88919,5.26035 -6.7991,16.31785 6.75923,8.84125 8.70364,15.42556 -5.93241,14.23777 -7.99297,-1.7144 -11.11871,-0.33146 -4.33649,7.35654 9.06589,14.30336 -1.42073,8.12314 -5.25402,8.91307 -20.63781,-1.62413 -8.6562,6.71877 -7.01583,11.90186 6.07028,12.34674 9.71199,22.8401 -9.4091,15.96186 -21.43096,-5.56712 -14.08705,6.13068 -9.52539,16.15913 8.50962,13.93676 0.75238,14.55869 -8.31596,14.10744 -2.55128,2.75894 -11.91762,-3.73113 -6.11225,10.36899 2.52318,33.95919 -2.7052,18.30836 -6.59951,11.1956 0,0 -19.40037,-39.09186 -32.0688,-27.55284 -40.53902,36.92491 -11.56618,-6.43331 -10.3576,-10.83296 4.83324,-17.59471 49.06524,-1.96931 17.13809,-35.46761 -11.11112,-11.6579 8.54416,-30.93331 -3.77021,-41.81052 -20.42349,-18.03995 1.8412,-52.81784 -5.43861,-72.48111 -8.7106,-23.52792 -5.34612,-26.98496 0.15195,-22.97684 z"
                                   id="path3787"
                                   inkscape:connector-curvature="0"
                                   sodipodi:nodetypes="ccccccccccccccccccccccsssssc" />
                                <path
                                   style="opacity:0.5;fill:#d45500;stroke:none;filter:url(#filter4343)"
                                   d="m 119.198,357.37723 c 4.59543,-3.24383 34.74916,-5.92925 28.6126,-21.44522 -5.56585,-14.07296 9.09871,-21.23745 19.10612,-14.60515 39.13007,25.93302 35.98728,1.15228 22.73591,-17.46646 -17.38423,-24.4256 7.83577,-24.57302 17.29506,-13.32642 5.24863,6.24035 14.67851,0.85348 19.2102,-14.83275 9.12654,-31.5911 13.55896,-10.96638 13.24826,-10.24788 -2.41298,30.2263 -3.57345,46.05491 11.51843,15.59788 14.16948,-18.42709 15.055,10.45143 14.7081,19.91721 2.20777,22.63927 4.85842,42.17844 13.67953,18.52436 13.90749,-25.81552 16.22083,-20.47174 8.58127,11.62047 -3.83815,6.40588 9.69295,11.47567 -11.56869,19.22182 -19.63312,4.99253 -17.97351,15.9519 -16.21353,26.9394 -1.90339,9.42659 7.25977,25.07811 -14.15971,23.5269 -23.83236,0.34613 -9.57273,14.13648 -13.0419,21.66962 1.64144,21.51332 9.29562,61.06487 -10.67609,17.73873 -7.32573,-13.70168 -13.07057,-13.17529 -19.11764,-15.36909 -10.68488,-3.79008 -26.11039,-4.51229 -22.13147,-17.79196 -0.50498,-29.17886 -2.95747,-13.26732 -23.48499,-18.88009 -5.95046,-5.10691 0.78736,-10.21381 -19.05749,-15.32072 -6.62017,-5.13119 -48.302044,-5.87968 -19.24397,-15.47065 z"
                                   id="path3789"
                                   inkscape:connector-curvature="0"
                                   sodipodi:nodetypes="csssssccccccccccccccc" />
                                <path
                                   style="opacity:0.5;fill:#d45500;stroke:none;filter:url(#filter4335)"
                                   d="m 498.51028,379.85313 c -22.36812,8.91254 13.31542,28.57677 4.61549,42.76801 -12.80767,20.89174 28.06362,29.97265 50.9429,31.98327 17.44238,-0.0633 23.54178,11.97259 31.31473,22.22336 4.89682,5.52391 6.86007,5.18379 2.26786,-8.08251 -2.44349,-7.05893 -7.73979,-20.47579 -0.63486,-21.45883 30.56488,-4.22898 16.72933,-18.24724 -5.67361,-16.92568 -4.44266,-1.93684 -8.42128,4.47913 -13.46118,-8.20803 -4.32523,-3.85336 -3.45037,-10.30677 -16.26297,-9.91645 -5.01815,-1.92653 -12.18571,3.45491 -14.20653,-8.66252 -4.50137,-19.29059 -8.95118,-10.95752 -11.31494,-6.89935 -2.14949,10.16477 -5.02554,15.24356 -11.83578,-7.21694 -2.0414,-19.38999 -10.7063,-10.68204 -15.75111,-9.60433 z"
                                   id="path3791"
                                   inkscape:connector-curvature="0"
                                   sodipodi:nodetypes="csccssccccccc" />
                              </g>
                            </g>
                          </g>
                        </g>
                      </g>
                    </g>
                  </g>
                </g>
              </g>
            </g>
          </g>
        </g>
      </g>
      <g
         transform="translate(10.618667,13.818881)"
         style="fill:url(#linearGradient3082);fill-opacity:1"
         id="g4423">
        <path
           transform="matrix(1.2032967,0,0,1.1538462,-143.95604,-418.38539)"
           d="m 680,806.64789 c 0,143.59403 -116.40597,260.00001 -260,260.00001 -143.59403,0 -260,-116.40598 -260,-260.00001 0,-143.59404 116.40597,-260 260,-260 143.59403,0 260,116.40596 260,260 z"
           sodipodi:ry="260"
           sodipodi:rx="260"
           sodipodi:cy="806.64789"
           sodipodi:cx="420"
           id="path4425"
           style="fill:url(#linearGradient3080);fill-opacity:1;fill-rule:evenodd;stroke:none"
           sodipodi:type="arc" />
      </g>
      <g
         transform="translate(796.51735,56.245288)"
         id="g4473">
        <g
           id="g4443"
           style="fill:url(#radialGradient3086);fill-opacity:1"
           transform="translate(-785.89868,-42.426407)">
          <path
             sodipodi:type="arc"
             style="fill:url(#radialGradient3084);fill-opacity:1;fill-rule:evenodd;stroke:none"
             id="path4445"
             sodipodi:cx="420"
             sodipodi:cy="806.64789"
             sodipodi:rx="260"
             sodipodi:ry="260"
             d="m 680,806.64789 c 0,143.59403 -116.40597,260.00001 -260,260.00001 -143.59403,0 -260,-116.40598 -260,-260.00001 0,-143.59404 116.40597,-260 260,-260 143.59403,0 260,116.40596 260,260 z"
             transform="matrix(1.2032967,0,0,1.1538462,-143.95604,-418.38539)" />
        </g>
      </g>
    </g>
  </g>
</svg>
